<mxfile host="app.diagrams.net" agent="Mozilla/5.0 (Windows NT 10.0; Win64; x64) AppleWebKit/537.36 (KHTML, like Gecko) Chrome/138.0.0.0 Safari/537.36" version="28.0.6">
  <diagram name="Page-1" id="GXyGxh3fhqGWcaT-Y3ZY">
    <mxGraphModel dx="2066" dy="1103" grid="1" gridSize="10" guides="1" tooltips="1" connect="1" arrows="1" fold="1" page="1" pageScale="1" pageWidth="850" pageHeight="1100" math="0" shadow="0">
      <root>
        <mxCell id="0" />
        <mxCell id="1" parent="0" />
        <mxCell id="sT55y12rGX_XL4kx0Qpv-9" value="" style="edgeStyle=orthogonalEdgeStyle;rounded=0;orthogonalLoop=1;jettySize=auto;html=1;" parent="1" source="sT55y12rGX_XL4kx0Qpv-1" target="sT55y12rGX_XL4kx0Qpv-8" edge="1">
          <mxGeometry relative="1" as="geometry" />
        </mxCell>
        <mxCell id="sT55y12rGX_XL4kx0Qpv-23" value="" style="edgeStyle=orthogonalEdgeStyle;rounded=0;orthogonalLoop=1;jettySize=auto;html=1;fontFamily=Helvetica;fontSize=12;fontColor=default;dashed=1;dashPattern=8 8;" parent="1" source="sT55y12rGX_XL4kx0Qpv-1" target="sT55y12rGX_XL4kx0Qpv-22" edge="1">
          <mxGeometry relative="1" as="geometry" />
        </mxCell>
        <mxCell id="sT55y12rGX_XL4kx0Qpv-1" value="llm.py-&gt;__init__()&#xa;# Create the Engine (autoselects V0 vs V1)&#xa;self.llm_engine = LLMEngine.from_engine_args(&#xa;            engine_args=engine_args, usage_context=UsageContext.LLM_CLASS)" style="rounded=0;whiteSpace=wrap;html=1;align=left;verticalAlign=top;" parent="1" vertex="1">
          <mxGeometry x="240" y="120" width="320" height="80" as="geometry" />
        </mxCell>
        <mxCell id="sT55y12rGX_XL4kx0Qpv-5" value="" style="edgeStyle=orthogonalEdgeStyle;rounded=0;orthogonalLoop=1;jettySize=auto;html=1;" parent="1" source="sT55y12rGX_XL4kx0Qpv-3" target="sT55y12rGX_XL4kx0Qpv-1" edge="1">
          <mxGeometry relative="1" as="geometry" />
        </mxCell>
        <mxCell id="sT55y12rGX_XL4kx0Qpv-3" value="VLLM的入口在 vllm/entrypoints下面" style="text;html=1;align=center;verticalAlign=middle;whiteSpace=wrap;rounded=0;strokeColor=default;dashed=1;dashPattern=8 8;" parent="1" vertex="1">
          <mxGeometry x="40" y="120" width="150" height="80" as="geometry" />
        </mxCell>
        <mxCell id="sT55y12rGX_XL4kx0Qpv-7" value="" style="edgeStyle=orthogonalEdgeStyle;rounded=0;orthogonalLoop=1;jettySize=auto;html=1;" parent="1" source="sT55y12rGX_XL4kx0Qpv-6" target="sT55y12rGX_XL4kx0Qpv-1" edge="1">
          <mxGeometry relative="1" as="geometry" />
        </mxCell>
        <mxCell id="sT55y12rGX_XL4kx0Qpv-6" value="test_vllm.py -&amp;gt; main()&lt;div&gt;&amp;nbsp; llm=LLM(model=model_path,)&lt;/div&gt;" style="rounded=0;whiteSpace=wrap;html=1;align=left;verticalAlign=top;" parent="1" vertex="1">
          <mxGeometry x="240" y="40" width="320" height="40" as="geometry" />
        </mxCell>
        <mxCell id="sT55y12rGX_XL4kx0Qpv-11" value="" style="edgeStyle=orthogonalEdgeStyle;rounded=0;orthogonalLoop=1;jettySize=auto;html=1;fontFamily=Helvetica;fontSize=12;fontColor=default;" parent="1" source="sT55y12rGX_XL4kx0Qpv-8" target="sT55y12rGX_XL4kx0Qpv-10" edge="1">
          <mxGeometry relative="1" as="geometry" />
        </mxCell>
        <mxCell id="sT55y12rGX_XL4kx0Qpv-8" value="&lt;div&gt;#V0 Path&lt;/div&gt;llm_engine.py-&amp;gt;from_engine_args()&lt;br&gt;&amp;nbsp; &amp;nbsp; return engine_cls.from_vllm_config()" style="rounded=0;whiteSpace=wrap;html=1;align=left;verticalAlign=top;" parent="1" vertex="1">
          <mxGeometry x="240" y="230" width="320" height="50" as="geometry" />
        </mxCell>
        <mxCell id="sT55y12rGX_XL4kx0Qpv-13" value="" style="edgeStyle=orthogonalEdgeStyle;rounded=0;orthogonalLoop=1;jettySize=auto;html=1;fontFamily=Helvetica;fontSize=12;fontColor=default;" parent="1" source="sT55y12rGX_XL4kx0Qpv-10" target="sT55y12rGX_XL4kx0Qpv-12" edge="1">
          <mxGeometry relative="1" as="geometry" />
        </mxCell>
        <mxCell id="sT55y12rGX_XL4kx0Qpv-10" value="llm_engine.py-&amp;gt;from_vllm_config()&lt;br&gt;&amp;nbsp; &amp;nbsp; return cls(&lt;div&gt;&lt;span style=&quot;white-space: pre;&quot;&gt;&#x9;&lt;/span&gt;executor_class=cls._get_executor_cls(vllm_config),&amp;nbsp;&lt;/div&gt;&lt;div&gt;&lt;span style=&quot;white-space: pre;&quot;&gt;&#x9;&lt;/span&gt;)&lt;/div&gt;" style="rounded=0;whiteSpace=wrap;html=1;align=left;verticalAlign=top;" parent="1" vertex="1">
          <mxGeometry x="240" y="300" width="320" height="70" as="geometry" />
        </mxCell>
        <mxCell id="sT55y12rGX_XL4kx0Qpv-15" value="" style="edgeStyle=orthogonalEdgeStyle;rounded=0;orthogonalLoop=1;jettySize=auto;html=1;fontFamily=Helvetica;fontSize=12;fontColor=default;" parent="1" source="sT55y12rGX_XL4kx0Qpv-12" target="sT55y12rGX_XL4kx0Qpv-14" edge="1">
          <mxGeometry relative="1" as="geometry" />
        </mxCell>
        <mxCell id="Y6s4YUltKjXgeL2X_BUD-3" value="" style="edgeStyle=orthogonalEdgeStyle;rounded=0;orthogonalLoop=1;jettySize=auto;html=1;" parent="1" source="sT55y12rGX_XL4kx0Qpv-12" target="Y6s4YUltKjXgeL2X_BUD-2" edge="1">
          <mxGeometry relative="1" as="geometry" />
        </mxCell>
        <mxCell id="sT55y12rGX_XL4kx0Qpv-12" value="llm_engine.py-&amp;gt;__init__()&lt;br&gt;&amp;nbsp; &amp;nbsp; &amp;nbsp; &amp;nbsp; self.tokenizer = self._init_tokenizer()&lt;br&gt;&amp;nbsp; &amp;nbsp; &amp;nbsp; &amp;nbsp; self.detokenizer = Detokenizer(self.tokenizer)&lt;br&gt;&amp;nbsp; &amp;nbsp; &amp;nbsp; &amp;nbsp; self.input_preprocessor = InputPreprocessor(self.model_config,&lt;br&gt;&amp;nbsp; &amp;nbsp; &amp;nbsp; &amp;nbsp; &amp;nbsp; &amp;nbsp; &amp;nbsp; &amp;nbsp; &amp;nbsp; &amp;nbsp; &amp;nbsp; &amp;nbsp; &amp;nbsp; &amp;nbsp; &amp;nbsp; &amp;nbsp; &amp;nbsp; &amp;nbsp; &amp;nbsp; &amp;nbsp; &amp;nbsp; &amp;nbsp; &amp;nbsp; &amp;nbsp; &amp;nbsp; &amp;nbsp; self.tokenizer,&lt;br&gt;&amp;nbsp; &amp;nbsp; &amp;nbsp; &amp;nbsp; &amp;nbsp; &amp;nbsp; &amp;nbsp; &amp;nbsp; &amp;nbsp; &amp;nbsp; &amp;nbsp; &amp;nbsp; &amp;nbsp; &amp;nbsp; &amp;nbsp; &amp;nbsp; &amp;nbsp; &amp;nbsp; &amp;nbsp; &amp;nbsp; &amp;nbsp; &amp;nbsp; &amp;nbsp; &amp;nbsp; &amp;nbsp; &amp;nbsp; mm_registry)&lt;br&gt;&amp;nbsp; &amp;nbsp; &amp;nbsp; &amp;nbsp; self.model_executor = &lt;b&gt;executor_class&lt;/b&gt;(vllm_config=vllm_config)&lt;br&gt;&#x9;&lt;span style=&quot;white-space: pre;&quot;&gt;&#x9;&lt;/span&gt;self.&lt;b&gt;_initialize_kv_caches&lt;/b&gt;()" style="rounded=0;whiteSpace=wrap;html=1;align=left;verticalAlign=top;" parent="1" vertex="1">
          <mxGeometry x="200" y="400" width="400" height="150" as="geometry" />
        </mxCell>
        <mxCell id="sT55y12rGX_XL4kx0Qpv-17" value="" style="edgeStyle=orthogonalEdgeStyle;rounded=0;orthogonalLoop=1;jettySize=auto;html=1;fontFamily=Helvetica;fontSize=12;fontColor=default;" parent="1" source="sT55y12rGX_XL4kx0Qpv-14" target="sT55y12rGX_XL4kx0Qpv-16" edge="1">
          <mxGeometry relative="1" as="geometry" />
        </mxCell>
        <mxCell id="sT55y12rGX_XL4kx0Qpv-14" value="executor_base.py-&amp;gt;__init__()&lt;br&gt;&amp;nbsp; &amp;nbsp; &amp;nbsp; &amp;nbsp; self._init_executor()" style="rounded=0;whiteSpace=wrap;html=1;align=left;verticalAlign=top;" parent="1" vertex="1">
          <mxGeometry x="240" y="580" width="320" height="40" as="geometry" />
        </mxCell>
        <mxCell id="sT55y12rGX_XL4kx0Qpv-19" value="" style="edgeStyle=orthogonalEdgeStyle;rounded=0;orthogonalLoop=1;jettySize=auto;html=1;fontFamily=Helvetica;fontSize=12;fontColor=default;" parent="1" source="sT55y12rGX_XL4kx0Qpv-16" target="sT55y12rGX_XL4kx0Qpv-18" edge="1">
          <mxGeometry relative="1" as="geometry" />
        </mxCell>
        <mxCell id="sT55y12rGX_XL4kx0Qpv-16" value="mp_distributed_executor.py-&amp;gt;self._init_executor()&lt;div&gt;&lt;div&gt;&amp;nbsp; &amp;nbsp; &amp;nbsp; &amp;nbsp; self._run_workers(&quot;init_worker&quot;, all_kwargs)&lt;/div&gt;&lt;div&gt;&amp;nbsp; &amp;nbsp; &amp;nbsp; &amp;nbsp; self._run_workers(&quot;init_device&quot;)&lt;/div&gt;&lt;div&gt;&amp;nbsp; &amp;nbsp; &amp;nbsp; &amp;nbsp; self._run_workers(&quot;load_model&quot;,&lt;/div&gt;&lt;/div&gt;" style="rounded=0;whiteSpace=wrap;html=1;align=left;verticalAlign=top;" parent="1" vertex="1">
          <mxGeometry x="240" y="650" width="320" height="70" as="geometry" />
        </mxCell>
        <mxCell id="sT55y12rGX_XL4kx0Qpv-25" value="" style="edgeStyle=orthogonalEdgeStyle;rounded=0;orthogonalLoop=1;jettySize=auto;html=1;fontFamily=Helvetica;fontSize=12;fontColor=default;dashed=1;dashPattern=8 8;" parent="1" source="sT55y12rGX_XL4kx0Qpv-18" target="sT55y12rGX_XL4kx0Qpv-24" edge="1">
          <mxGeometry relative="1" as="geometry" />
        </mxCell>
        <mxCell id="sT55y12rGX_XL4kx0Qpv-18" value="worker.py-&amp;gt;__init__()&lt;br&gt;&lt;b&gt;&amp;nbsp; &amp;nbsp; &amp;nbsp; &amp;nbsp; self._run_workers(&quot;init_worker&quot;, all_kwargs)&lt;br&gt;&amp;nbsp; &amp;nbsp; &amp;nbsp; &amp;nbsp; self._run_workers(&quot;init_device&quot;)&lt;br&gt;&amp;nbsp; &amp;nbsp; &amp;nbsp; &amp;nbsp; self._run_workers(&quot;load_model&quot;,&lt;/b&gt;&lt;br&gt;&amp;nbsp; &amp;nbsp; &amp;nbsp; &amp;nbsp; self.model_runner: GPUModelRunnerBase = ModelRunnerClass(&lt;br&gt;&amp;nbsp; &amp;nbsp; &amp;nbsp; &amp;nbsp; &amp;nbsp; &amp;nbsp; vllm_config=self.vllm_config,&lt;br&gt;&amp;nbsp; &amp;nbsp; &amp;nbsp; &amp;nbsp; &amp;nbsp; &amp;nbsp; kv_cache_dtype=self.cache_config.cache_dtype,&lt;br&gt;&amp;nbsp; &amp;nbsp; &amp;nbsp; &amp;nbsp; &amp;nbsp; &amp;nbsp; is_driver_worker=is_driver_worker,&lt;br&gt;&amp;nbsp; &amp;nbsp; &amp;nbsp; &amp;nbsp; &amp;nbsp; &amp;nbsp; **speculative_args,&lt;br&gt;&amp;nbsp; &amp;nbsp; &amp;nbsp; &amp;nbsp; )&lt;br&gt;&amp;nbsp; &amp;nbsp; &amp;nbsp; &amp;nbsp; # initialize_cache.&lt;br&gt;&amp;nbsp; &amp;nbsp; &amp;nbsp; &amp;nbsp; self.cache_engine: List[CacheEngine]&lt;br&gt;&amp;nbsp; &amp;nbsp; &amp;nbsp; &amp;nbsp; # Initialize gpu_cache as pooling models don&#39;t initialize kv_caches&lt;br&gt;&amp;nbsp; &amp;nbsp; &amp;nbsp; &amp;nbsp; self.gpu_cache: Optional[List[List[torch.Tensor]]] = None" style="rounded=0;whiteSpace=wrap;html=1;align=left;verticalAlign=top;" parent="1" vertex="1">
          <mxGeometry x="200" y="760" width="400" height="220" as="geometry" />
        </mxCell>
        <mxCell id="sT55y12rGX_XL4kx0Qpv-22" value="&amp;nbsp; &amp;nbsp; A[用户创建LLM实例] --&amp;gt; B[调用LLMEngine.from_engine_args]&lt;br&gt;&amp;nbsp; &amp;nbsp; B --&amp;gt; C{检查envs.VLLM_USE_V1}&lt;br&gt;&amp;nbsp; &amp;nbsp; C --&amp;gt;|True 默认| D[导入V1LLMEngine]&lt;br&gt;&amp;nbsp; &amp;nbsp; C --&amp;gt;|False| E[使用V0LLMEngine]&lt;br&gt;&lt;br&gt;系统默认是1，但会用函数检查&lt;br&gt;_is_v1_supported_oracle（）&lt;div&gt;&lt;div&gt;&amp;nbsp; &amp;nbsp; &amp;nbsp; &amp;nbsp; if (current_platform.is_cuda()&lt;/div&gt;&lt;div&gt;&amp;nbsp; &amp;nbsp; &amp;nbsp; &amp;nbsp; &amp;nbsp; &amp;nbsp; &amp;nbsp; &amp;nbsp; and current_platform.get_device_capability()&lt;/div&gt;&lt;div&gt;&amp;nbsp; &amp;nbsp; &amp;nbsp; &amp;nbsp; &amp;nbsp; &amp;nbsp; &amp;nbsp; &amp;nbsp; and current_platform.get_device_capability().major &amp;lt; 8):&lt;/div&gt;&lt;div&gt;&amp;nbsp; &amp;nbsp; &amp;nbsp; &amp;nbsp; &amp;nbsp; &amp;nbsp; _raise_or_fallback(feature_name=&quot;Compute Capability &amp;lt; 8.0&quot;,&lt;/div&gt;&lt;div&gt;&amp;nbsp; &amp;nbsp; &amp;nbsp; &amp;nbsp; &amp;nbsp; &amp;nbsp; &amp;nbsp; &amp;nbsp; &amp;nbsp; &amp;nbsp; &amp;nbsp; &amp;nbsp; &amp;nbsp; &amp;nbsp; &amp;nbsp; &amp;nbsp;recommend_to_remove=False)&lt;/div&gt;&lt;div&gt;&amp;nbsp; &amp;nbsp; &amp;nbsp; &amp;nbsp; &amp;nbsp; &amp;nbsp; return False&lt;/div&gt;&lt;/div&gt;" style="rounded=0;whiteSpace=wrap;html=1;align=left;verticalAlign=top;dashed=1;dashPattern=8 8;" parent="1" vertex="1">
          <mxGeometry x="620" y="57.5" width="380" height="205" as="geometry" />
        </mxCell>
        <mxCell id="sT55y12rGX_XL4kx0Qpv-24" value="&lt;div&gt;# 在V1中，最终也会走到类似的地方：&lt;/div&gt;mp_distributed_executor.py-&amp;gt;_init_excutor()&lt;br&gt;&amp;nbsp; &amp;nbsp; &amp;nbsp; &amp;nbsp; self._run_workers(&quot;init_worker&quot;, all_kwargs)&lt;br&gt;&amp;nbsp; &amp;nbsp; &amp;nbsp; &amp;nbsp; self._run_workers(&quot;init_device&quot;)&lt;br&gt;&amp;nbsp; &amp;nbsp; &amp;nbsp; &amp;nbsp; self._run_workers(&quot;load_model&quot;," style="rounded=0;whiteSpace=wrap;html=1;align=left;verticalAlign=top;dashed=1;dashPattern=8 8;" parent="1" vertex="1">
          <mxGeometry x="650" y="760" width="280" height="90" as="geometry" />
        </mxCell>
        <mxCell id="Y6s4YUltKjXgeL2X_BUD-1" value="&lt;b style=&quot;forced-color-adjust: none; color: rgb(0, 0, 0); font-family: Helvetica; font-size: 12px; font-style: normal; font-variant-ligatures: normal; font-variant-caps: normal; letter-spacing: normal; orphans: 2; text-align: left; text-indent: 0px; text-transform: none; widows: 2; word-spacing: 0px; -webkit-text-stroke-width: 0px; white-space: normal; background-color: rgb(236, 236, 236); text-decoration-thickness: initial; text-decoration-style: initial; text-decoration-color: initial;&quot;&gt;executor_class&lt;/b&gt;" style="text;whiteSpace=wrap;html=1;" parent="1" vertex="1">
          <mxGeometry x="410" y="550" width="120" height="40" as="geometry" />
        </mxCell>
        <mxCell id="Y6s4YUltKjXgeL2X_BUD-2" value="llm_engine.py-&amp;gt;&lt;b&gt;_initialize_kv_caches&lt;/b&gt;()&lt;br&gt;&amp;nbsp; &amp;nbsp; &amp;nbsp; &amp;nbsp;&amp;nbsp;self.model_executor.determine_num_available_blocks())&lt;br&gt;&#x9;&lt;span style=&quot;white-space: pre;&quot;&gt;&#x9;&lt;/span&gt;self.model_executor.initialize_cache(num_gpu_blocks, num_cpu_blocks)" style="rounded=0;whiteSpace=wrap;html=1;align=left;verticalAlign=top;" parent="1" vertex="1">
          <mxGeometry x="610" y="580" width="450" height="60" as="geometry" />
        </mxCell>
        <mxCell id="Y6s4YUltKjXgeL2X_BUD-4" value="&lt;b style=&quot;forced-color-adjust: none; color: rgb(0, 0, 0); font-family: Helvetica; font-size: 12px; font-style: normal; font-variant-ligatures: normal; font-variant-caps: normal; letter-spacing: normal; orphans: 2; text-align: left; text-indent: 0px; text-transform: none; widows: 2; word-spacing: 0px; -webkit-text-stroke-width: 0px; white-space: normal; background-color: rgb(236, 236, 236); text-decoration-thickness: initial; text-decoration-style: initial; text-decoration-color: initial;&quot;&gt;_initialize_kv_caches&lt;/b&gt;" style="text;whiteSpace=wrap;html=1;" parent="1" vertex="1">
          <mxGeometry x="650" y="480" width="150" height="40" as="geometry" />
        </mxCell>
        <mxCell id="FvFLSkKqpKLTtvr1RCym-4" style="edgeStyle=orthogonalEdgeStyle;rounded=0;orthogonalLoop=1;jettySize=auto;html=1;entryX=0;entryY=0.5;entryDx=0;entryDy=0;" parent="1" source="FvFLSkKqpKLTtvr1RCym-1" target="FvFLSkKqpKLTtvr1RCym-3" edge="1">
          <mxGeometry relative="1" as="geometry" />
        </mxCell>
        <mxCell id="FvFLSkKqpKLTtvr1RCym-1" value="LLM Entryponts" style="rounded=0;whiteSpace=wrap;html=1;" parent="1" vertex="1">
          <mxGeometry x="1050" y="75" width="120" height="60" as="geometry" />
        </mxCell>
        <mxCell id="FvFLSkKqpKLTtvr1RCym-5" style="edgeStyle=orthogonalEdgeStyle;rounded=0;orthogonalLoop=1;jettySize=auto;html=1;entryX=0;entryY=0.5;entryDx=0;entryDy=0;" parent="1" source="FvFLSkKqpKLTtvr1RCym-2" target="FvFLSkKqpKLTtvr1RCym-3" edge="1">
          <mxGeometry relative="1" as="geometry" />
        </mxCell>
        <mxCell id="FvFLSkKqpKLTtvr1RCym-2" value="Generate" style="rounded=0;whiteSpace=wrap;html=1;" parent="1" vertex="1">
          <mxGeometry x="1050" y="165" width="120" height="60" as="geometry" />
        </mxCell>
        <mxCell id="FvFLSkKqpKLTtvr1RCym-7" value="" style="edgeStyle=orthogonalEdgeStyle;rounded=0;orthogonalLoop=1;jettySize=auto;html=1;" parent="1" source="FvFLSkKqpKLTtvr1RCym-3" target="FvFLSkKqpKLTtvr1RCym-6" edge="1">
          <mxGeometry relative="1" as="geometry" />
        </mxCell>
        <mxCell id="FvFLSkKqpKLTtvr1RCym-9" value="" style="edgeStyle=orthogonalEdgeStyle;rounded=0;orthogonalLoop=1;jettySize=auto;html=1;" parent="1" source="FvFLSkKqpKLTtvr1RCym-3" target="FvFLSkKqpKLTtvr1RCym-8" edge="1">
          <mxGeometry relative="1" as="geometry" />
        </mxCell>
        <mxCell id="FvFLSkKqpKLTtvr1RCym-3" value="EngineCore Client" style="rounded=0;whiteSpace=wrap;html=1;" parent="1" vertex="1">
          <mxGeometry x="1230" y="105" width="120" height="60" as="geometry" />
        </mxCell>
        <mxCell id="FvFLSkKqpKLTtvr1RCym-10" value="" style="edgeStyle=orthogonalEdgeStyle;rounded=0;orthogonalLoop=1;jettySize=auto;html=1;" parent="1" source="FvFLSkKqpKLTtvr1RCym-6" target="FvFLSkKqpKLTtvr1RCym-3" edge="1">
          <mxGeometry relative="1" as="geometry" />
        </mxCell>
        <mxCell id="FvFLSkKqpKLTtvr1RCym-6" value="ZeroMQ" style="rounded=0;whiteSpace=wrap;html=1;" parent="1" vertex="1">
          <mxGeometry x="1400" y="70" width="80" height="130" as="geometry" />
        </mxCell>
        <mxCell id="FvFLSkKqpKLTtvr1RCym-11" value="" style="edgeStyle=orthogonalEdgeStyle;rounded=0;orthogonalLoop=1;jettySize=auto;html=1;" parent="1" source="FvFLSkKqpKLTtvr1RCym-8" target="FvFLSkKqpKLTtvr1RCym-6" edge="1">
          <mxGeometry relative="1" as="geometry" />
        </mxCell>
        <mxCell id="FvFLSkKqpKLTtvr1RCym-13" value="" style="edgeStyle=orthogonalEdgeStyle;rounded=0;orthogonalLoop=1;jettySize=auto;html=1;" parent="1" source="FvFLSkKqpKLTtvr1RCym-8" target="FvFLSkKqpKLTtvr1RCym-12" edge="1">
          <mxGeometry relative="1" as="geometry" />
        </mxCell>
        <mxCell id="FvFLSkKqpKLTtvr1RCym-8" value="EngineCore" style="rounded=0;whiteSpace=wrap;html=1;" parent="1" vertex="1">
          <mxGeometry x="1530" y="105" width="120" height="60" as="geometry" />
        </mxCell>
        <mxCell id="FvFLSkKqpKLTtvr1RCym-15" value="" style="edgeStyle=orthogonalEdgeStyle;rounded=0;orthogonalLoop=1;jettySize=auto;html=1;" parent="1" source="FvFLSkKqpKLTtvr1RCym-12" target="FvFLSkKqpKLTtvr1RCym-14" edge="1">
          <mxGeometry relative="1" as="geometry" />
        </mxCell>
        <mxCell id="FvFLSkKqpKLTtvr1RCym-17" value="" style="edgeStyle=orthogonalEdgeStyle;rounded=0;orthogonalLoop=1;jettySize=auto;html=1;" parent="1" source="FvFLSkKqpKLTtvr1RCym-12" target="FvFLSkKqpKLTtvr1RCym-16" edge="1">
          <mxGeometry relative="1" as="geometry" />
        </mxCell>
        <mxCell id="R-JUSdy0ZhBVJnowikNM-2" value="" style="edgeStyle=orthogonalEdgeStyle;rounded=0;orthogonalLoop=1;jettySize=auto;html=1;dashed=1;dashPattern=8 8;" edge="1" parent="1" source="FvFLSkKqpKLTtvr1RCym-12" target="R-JUSdy0ZhBVJnowikNM-1">
          <mxGeometry relative="1" as="geometry" />
        </mxCell>
        <mxCell id="FvFLSkKqpKLTtvr1RCym-12" value="Executor" style="rounded=0;whiteSpace=wrap;html=1;" parent="1" vertex="1">
          <mxGeometry x="1530" y="245" width="120" height="60" as="geometry" />
        </mxCell>
        <mxCell id="FvFLSkKqpKLTtvr1RCym-20" value="" style="edgeStyle=orthogonalEdgeStyle;rounded=0;orthogonalLoop=1;jettySize=auto;html=1;" parent="1" source="FvFLSkKqpKLTtvr1RCym-14" target="FvFLSkKqpKLTtvr1RCym-19" edge="1">
          <mxGeometry relative="1" as="geometry" />
        </mxCell>
        <mxCell id="FvFLSkKqpKLTtvr1RCym-24" value="" style="edgeStyle=orthogonalEdgeStyle;rounded=0;orthogonalLoop=1;jettySize=auto;html=1;dashed=1;dashPattern=8 8;" parent="1" source="FvFLSkKqpKLTtvr1RCym-14" target="FvFLSkKqpKLTtvr1RCym-23" edge="1">
          <mxGeometry relative="1" as="geometry" />
        </mxCell>
        <mxCell id="FvFLSkKqpKLTtvr1RCym-14" value="Worker" style="rounded=0;whiteSpace=wrap;html=1;" parent="1" vertex="1">
          <mxGeometry x="1440" y="355" width="120" height="50" as="geometry" />
        </mxCell>
        <mxCell id="FvFLSkKqpKLTtvr1RCym-22" value="" style="edgeStyle=orthogonalEdgeStyle;rounded=0;orthogonalLoop=1;jettySize=auto;html=1;" parent="1" source="FvFLSkKqpKLTtvr1RCym-16" target="FvFLSkKqpKLTtvr1RCym-21" edge="1">
          <mxGeometry relative="1" as="geometry" />
        </mxCell>
        <mxCell id="FvFLSkKqpKLTtvr1RCym-16" value="Worker" style="rounded=0;whiteSpace=wrap;html=1;" parent="1" vertex="1">
          <mxGeometry x="1620" y="355" width="120" height="60" as="geometry" />
        </mxCell>
        <mxCell id="FvFLSkKqpKLTtvr1RCym-18" value="..." style="text;html=1;align=center;verticalAlign=middle;whiteSpace=wrap;rounded=0;" parent="1" vertex="1">
          <mxGeometry x="1560" y="370" width="60" height="30" as="geometry" />
        </mxCell>
        <mxCell id="mGCUkn8bLk5gTM7kcdC7-2" value="" style="edgeStyle=orthogonalEdgeStyle;rounded=0;orthogonalLoop=1;jettySize=auto;html=1;dashed=1;dashPattern=8 8;" parent="1" source="FvFLSkKqpKLTtvr1RCym-19" target="mGCUkn8bLk5gTM7kcdC7-1" edge="1">
          <mxGeometry relative="1" as="geometry" />
        </mxCell>
        <mxCell id="mGCUkn8bLk5gTM7kcdC7-4" value="" style="edgeStyle=orthogonalEdgeStyle;rounded=0;orthogonalLoop=1;jettySize=auto;html=1;" parent="1" source="FvFLSkKqpKLTtvr1RCym-19" target="mGCUkn8bLk5gTM7kcdC7-3" edge="1">
          <mxGeometry relative="1" as="geometry" />
        </mxCell>
        <mxCell id="FvFLSkKqpKLTtvr1RCym-19" value="Model Runder" style="rounded=0;whiteSpace=wrap;html=1;" parent="1" vertex="1">
          <mxGeometry x="1440" y="445" width="120" height="60" as="geometry" />
        </mxCell>
        <mxCell id="mGCUkn8bLk5gTM7kcdC7-6" value="" style="edgeStyle=orthogonalEdgeStyle;rounded=0;orthogonalLoop=1;jettySize=auto;html=1;" parent="1" source="FvFLSkKqpKLTtvr1RCym-21" target="mGCUkn8bLk5gTM7kcdC7-5" edge="1">
          <mxGeometry relative="1" as="geometry" />
        </mxCell>
        <mxCell id="FvFLSkKqpKLTtvr1RCym-21" value="Model Runer" style="rounded=0;whiteSpace=wrap;html=1;" parent="1" vertex="1">
          <mxGeometry x="1620" y="445" width="120" height="60" as="geometry" />
        </mxCell>
        <mxCell id="FvFLSkKqpKLTtvr1RCym-23" value="每个Worker都对应一个GPU。&lt;div&gt;全局GPU总数放在world_size当中，没个worker有个rank值作为自己的标识，rank 0作为并行计算总调度&lt;/div&gt;&lt;div&gt;_WOLRD作为全局变量保存GPU信息&lt;/div&gt;&lt;div&gt;_TP和_PP保存tp和pp并行的分组信息&lt;/div&gt;" style="rounded=0;whiteSpace=wrap;html=1;dashed=1;dashPattern=8 8;align=left;" parent="1" vertex="1">
          <mxGeometry x="1130" y="355" width="240" height="108.75" as="geometry" />
        </mxCell>
        <mxCell id="mGCUkn8bLk5gTM7kcdC7-1" value="Model Runder中的execute_model函数调用self.attn_state.begin_forward(model_input)进行推理。attn_state是attend的后端，在vllm中就是flashattention （对于较老的架构，例如T4, 后端为XFORMERS)" style="rounded=0;whiteSpace=wrap;html=1;dashed=1;dashPattern=8 8;align=left;" parent="1" vertex="1">
          <mxGeometry x="1130" y="505" width="240" height="90" as="geometry" />
        </mxCell>
        <mxCell id="mGCUkn8bLk5gTM7kcdC7-8" value="" style="edgeStyle=orthogonalEdgeStyle;rounded=0;orthogonalLoop=1;jettySize=auto;html=1;" parent="1" source="mGCUkn8bLk5gTM7kcdC7-3" target="mGCUkn8bLk5gTM7kcdC7-7" edge="1">
          <mxGeometry relative="1" as="geometry" />
        </mxCell>
        <mxCell id="mGCUkn8bLk5gTM7kcdC7-3" value="Model Executor" style="rounded=0;whiteSpace=wrap;html=1;" parent="1" vertex="1">
          <mxGeometry x="1440" y="545" width="120" height="60" as="geometry" />
        </mxCell>
        <mxCell id="mGCUkn8bLk5gTM7kcdC7-10" value="" style="edgeStyle=orthogonalEdgeStyle;rounded=0;orthogonalLoop=1;jettySize=auto;html=1;" parent="1" source="mGCUkn8bLk5gTM7kcdC7-5" target="mGCUkn8bLk5gTM7kcdC7-9" edge="1">
          <mxGeometry relative="1" as="geometry" />
        </mxCell>
        <mxCell id="mGCUkn8bLk5gTM7kcdC7-5" value="Model Executor" style="rounded=0;whiteSpace=wrap;html=1;" parent="1" vertex="1">
          <mxGeometry x="1620" y="545" width="120" height="60" as="geometry" />
        </mxCell>
        <mxCell id="mGCUkn8bLk5gTM7kcdC7-12" value="" style="edgeStyle=orthogonalEdgeStyle;rounded=0;orthogonalLoop=1;jettySize=auto;html=1;" parent="1" source="mGCUkn8bLk5gTM7kcdC7-7" target="mGCUkn8bLk5gTM7kcdC7-11" edge="1">
          <mxGeometry relative="1" as="geometry" />
        </mxCell>
        <mxCell id="mGCUkn8bLk5gTM7kcdC7-7" value="QWen2.5_vl" style="rounded=0;whiteSpace=wrap;html=1;" parent="1" vertex="1">
          <mxGeometry x="1440" y="635" width="120" height="60" as="geometry" />
        </mxCell>
        <mxCell id="mGCUkn8bLk5gTM7kcdC7-9" value="QWen2.5_vl" style="rounded=0;whiteSpace=wrap;html=1;" parent="1" vertex="1">
          <mxGeometry x="1620" y="635" width="120" height="60" as="geometry" />
        </mxCell>
        <mxCell id="mGCUkn8bLk5gTM7kcdC7-11" value="每个模型都需要实现自己的executor，里面需要定义 load_weights() 和 forward() 函数&#xa;‌模型加载‌：&#xa;Executor调用worker.load_model() → Worker触发model_runner.load_model() → model_runner使用model_executor的DefaultModelLoader中的load_model加载模型‌，并使用initialize_model（）函数初始化模型&#xa;推理执行‌：&#xa;Executor的execute_model() → Worker的model_runner.run_model() → model_executor执行前向传播并管理KV Cache‌。" style="rounded=0;whiteSpace=wrap;html=1;dashed=1;dashPattern=8 8;align=left;" parent="1" vertex="1">
          <mxGeometry x="1070" y="670" width="320" height="180" as="geometry" />
        </mxCell>
        <mxCell id="mGCUkn8bLk5gTM7kcdC7-14" value="&lt;div&gt;&lt;span style=&quot;background-color: transparent; color: light-dark(rgb(0, 0, 0), rgb(255, 255, 255));&quot;&gt;Qwen2.5-VL 模型架构详细分析&lt;/span&gt;&lt;/div&gt;&lt;div&gt;&lt;br&gt;&lt;/div&gt;&lt;div&gt;模型配置概览:&lt;/div&gt;&lt;div&gt;&amp;nbsp; &amp;nbsp;模型类型: qwen2_5_vl&lt;/div&gt;&lt;div&gt;&amp;nbsp; &amp;nbsp;架构: [&#39;Qwen2_5_VLForConditionalGeneration&#39;]&lt;/div&gt;&lt;div&gt;&amp;nbsp; &amp;nbsp;隐藏层大小: 3584&lt;/div&gt;&lt;div&gt;&amp;nbsp; &amp;nbsp;注意力头数: 28&lt;/div&gt;&lt;div&gt;&amp;nbsp; &amp;nbsp;KV头数: 4&lt;/div&gt;&lt;div&gt;&amp;nbsp; &amp;nbsp;隐藏层数: 28&lt;/div&gt;&lt;div&gt;&amp;nbsp; &amp;nbsp;中间层大小: 18944&lt;/div&gt;&lt;div&gt;&amp;nbsp; &amp;nbsp;词汇表大小: 152064&lt;/div&gt;&lt;div&gt;&amp;nbsp; &amp;nbsp;最大位置嵌入: 128000&lt;/div&gt;&lt;div&gt;&lt;br&gt;&lt;/div&gt;&lt;div&gt;视觉编码器配置:&lt;/div&gt;&lt;div&gt;&amp;nbsp; &amp;nbsp;隐藏大小: 1280&lt;/div&gt;&lt;div&gt;&amp;nbsp; &amp;nbsp;输入通道: 3&lt;/div&gt;&lt;div&gt;&amp;nbsp; &amp;nbsp;空间Patch大小: 14&lt;/div&gt;&lt;div&gt;&amp;nbsp; &amp;nbsp;每秒Token数: 2&lt;/div&gt;&lt;div&gt;&lt;br&gt;&lt;/div&gt;&lt;div&gt;量化配置:&lt;/div&gt;&lt;div&gt;&amp;nbsp; &amp;nbsp;量化方法: awq&lt;/div&gt;&lt;div&gt;&amp;nbsp; &amp;nbsp;比特数: 4&lt;/div&gt;&lt;div&gt;&amp;nbsp; &amp;nbsp;组大小: 128&lt;/div&gt;&lt;div&gt;&amp;nbsp; &amp;nbsp;不转换模块: [&#39;visual&#39;]&lt;/div&gt;&lt;div&gt;&lt;br&gt;&lt;/div&gt;&lt;div&gt;&amp;nbsp;特殊Token ID:&lt;/div&gt;&lt;div&gt;&amp;nbsp; &amp;nbsp;图像Token: 151655&lt;/div&gt;&lt;div&gt;&amp;nbsp; &amp;nbsp;视频Token: 151656&lt;/div&gt;&lt;div&gt;&amp;nbsp; &amp;nbsp;视觉开始Token: 151652&lt;/div&gt;&lt;div&gt;&amp;nbsp; &amp;nbsp;视觉结束Token: 151653&lt;/div&gt;&lt;div&gt;&amp;nbsp; &amp;nbsp;EOS Token: 151645&lt;/div&gt;&lt;div&gt;&lt;br&gt;&lt;/div&gt;&lt;div&gt;从源码分析架构:&lt;/div&gt;&lt;div&gt;&amp;nbsp; &amp;nbsp;主模型类: Qwen2_5_VLForConditionalGeneration&lt;/div&gt;&lt;div&gt;&amp;nbsp; &amp;nbsp;└─ visual: Qwen2_5_VisionTransformer&lt;/div&gt;&lt;div&gt;&amp;nbsp; &amp;nbsp; &amp;nbsp; ├─ patch_embed: Qwen2_5_VisionPatchEmbed&lt;/div&gt;&lt;div&gt;&amp;nbsp; &amp;nbsp; &amp;nbsp; ├─ rotary_pos_emb: Qwen2_5_VisionRotaryEmbedding&lt;/div&gt;&lt;div&gt;&amp;nbsp; &amp;nbsp; &amp;nbsp; ├─ blocks: List[Qwen2_5_VisionBlock]&lt;/div&gt;&lt;div&gt;&amp;nbsp; &amp;nbsp; &amp;nbsp; │&amp;nbsp; ├─ norm1: RMSNorm&lt;/div&gt;&lt;div&gt;&amp;nbsp; &amp;nbsp; &amp;nbsp; │&amp;nbsp; ├─ attn: Qwen2_5_VisionAttention&lt;/div&gt;&lt;div&gt;&amp;nbsp; &amp;nbsp; &amp;nbsp; │&amp;nbsp; │&amp;nbsp; ├─ qkv: QKVParallelLinear&lt;/div&gt;&lt;div&gt;&amp;nbsp; &amp;nbsp; &amp;nbsp; │&amp;nbsp; │&amp;nbsp; └─ proj: RowParallelLinear&lt;/div&gt;&lt;div&gt;&amp;nbsp; &amp;nbsp; &amp;nbsp; │&amp;nbsp; ├─ norm2: RMSNorm&lt;/div&gt;&lt;div&gt;&amp;nbsp; &amp;nbsp; &amp;nbsp; │&amp;nbsp; └─ mlp: Qwen2_5_VisionMLP&lt;/div&gt;&lt;div&gt;&amp;nbsp; &amp;nbsp; &amp;nbsp; │&amp;nbsp; &amp;nbsp; &amp;nbsp;├─ gate_proj: ColumnParallelLinear&lt;/div&gt;&lt;div&gt;&amp;nbsp; &amp;nbsp; &amp;nbsp; │&amp;nbsp; &amp;nbsp; &amp;nbsp;├─ up_proj: ColumnParallelLinear&lt;/div&gt;&lt;div&gt;&amp;nbsp; &amp;nbsp; &amp;nbsp; │&amp;nbsp; &amp;nbsp; &amp;nbsp;└─ down_proj: RowParallelLinear&lt;/div&gt;&lt;div&gt;&amp;nbsp; &amp;nbsp; &amp;nbsp; └─ merger: Qwen2_5_VisionPatchMerger&lt;/div&gt;&lt;div&gt;&amp;nbsp; &amp;nbsp;└─ language_model: Qwen2ForCausalLM&lt;/div&gt;&lt;div&gt;&lt;br&gt;&lt;/div&gt;" style="text;html=1;align=left;verticalAlign=top;whiteSpace=wrap;rounded=0;" parent="1" vertex="1">
          <mxGeometry x="1820" y="30" width="330" height="720" as="geometry" />
        </mxCell>
        <mxCell id="mGCUkn8bLk5gTM7kcdC7-15" value="&lt;div&gt;&lt;span style=&quot;background-color: transparent; color: light-dark(rgb(0, 0, 0), rgb(255, 255, 255));&quot;&gt;注意力机制详解:&lt;/span&gt;&lt;/div&gt;&lt;div&gt;&amp;nbsp; &amp;nbsp;视觉注意力 (Qwen2_5_VisionAttention):&lt;/div&gt;&lt;div&gt;&amp;nbsp; &amp;nbsp;├─ 支持的后端: Flash Attention, Torch SDPA, xFormers&lt;/div&gt;&lt;div&gt;&amp;nbsp; &amp;nbsp;├─ 张量并行支持:&amp;nbsp;&lt;/div&gt;&lt;div&gt;&amp;nbsp; &amp;nbsp;├─ 旋转位置编码: (视觉特化版本)&lt;/div&gt;&lt;div&gt;&amp;nbsp; &amp;nbsp;├─ 变长序列支持: (cu_seqlens)&lt;/div&gt;&lt;div&gt;&amp;nbsp; &amp;nbsp;└─ 窗口注意力: (部分层使用)&lt;/div&gt;&lt;div&gt;&lt;br&gt;&lt;/div&gt;&lt;div&gt;数据流程:&lt;/div&gt;&lt;div&gt;&amp;nbsp; &amp;nbsp;1. 输入:&lt;/div&gt;&lt;div&gt;&amp;nbsp; &amp;nbsp; &amp;nbsp; ├─ 图像: pixel_values -&amp;gt; Patch Embedding&lt;/div&gt;&lt;div&gt;&amp;nbsp; &amp;nbsp; &amp;nbsp; ├─ 视频: pixel_values_videos -&amp;gt; Patch Embedding&lt;/div&gt;&lt;div&gt;&amp;nbsp; &amp;nbsp; &amp;nbsp; └─ 文本: input_ids -&amp;gt; Token Embedding&lt;/div&gt;&lt;div&gt;&amp;nbsp; &amp;nbsp;2. 视觉处理:&lt;/div&gt;&lt;div&gt;&amp;nbsp; &amp;nbsp; &amp;nbsp; ├─ Patch Embedding (3D Conv)&lt;/div&gt;&lt;div&gt;&amp;nbsp; &amp;nbsp; &amp;nbsp; ├─ 位置编码 (RoPE)&lt;/div&gt;&lt;div&gt;&amp;nbsp; &amp;nbsp; &amp;nbsp; ├─ Vision Transformer Blocks&lt;/div&gt;&lt;div&gt;&amp;nbsp; &amp;nbsp; &amp;nbsp; └─ Patch Merger -&amp;gt; 语言模型维度&lt;/div&gt;&lt;div&gt;&amp;nbsp; &amp;nbsp;3. 多模态融合:&lt;/div&gt;&lt;div&gt;&amp;nbsp; &amp;nbsp; &amp;nbsp; ├─ 视觉特征嵌入到文本序列&lt;/div&gt;&lt;div&gt;&amp;nbsp; &amp;nbsp; &amp;nbsp; └─ 统一的语言模型处理&lt;/div&gt;&lt;div&gt;&amp;nbsp; &amp;nbsp;4. 输出生成:&lt;/div&gt;&lt;div&gt;&amp;nbsp; &amp;nbsp; &amp;nbsp; └─ 语言模型 -&amp;gt; Logits -&amp;gt; 采样&lt;/div&gt;&lt;div&gt;&lt;br&gt;&lt;/div&gt;&lt;div&gt;代码结构分析:&lt;/div&gt;&lt;div&gt;&amp;nbsp; &amp;nbsp;主要组件类:&lt;/div&gt;&lt;div&gt;&amp;nbsp; &amp;nbsp;├─ Qwen2_5_VLForConditionalGeneration&lt;/div&gt;&lt;div&gt;&amp;nbsp; &amp;nbsp;├─ Qwen2_5_VisionTransformer&lt;/div&gt;&lt;div&gt;&amp;nbsp; &amp;nbsp;├─ Qwen2_5_VisionAttention&lt;/div&gt;&lt;div&gt;&amp;nbsp; &amp;nbsp;├─ Qwen2_5_VisionBlock&lt;/div&gt;&lt;div&gt;&lt;br&gt;&lt;/div&gt;&lt;div&gt;&amp;nbsp; &amp;nbsp;关键方法:&lt;/div&gt;&lt;div&gt;&amp;nbsp; &amp;nbsp;├─ forward(): 前向传播&lt;/div&gt;&lt;div&gt;&amp;nbsp; &amp;nbsp;├─ get_multimodal_embeddings(): 多模态嵌入&lt;/div&gt;&lt;div&gt;&amp;nbsp; &amp;nbsp;├─ get_input_embeddings(): 输入嵌入&lt;/div&gt;&lt;div&gt;&amp;nbsp; &amp;nbsp;└─ compute_logits(): 计算输出概率&lt;/div&gt;&lt;div&gt;&lt;br&gt;&lt;/div&gt;" style="text;html=1;align=left;verticalAlign=top;whiteSpace=wrap;rounded=0;" parent="1" vertex="1">
          <mxGeometry x="2140" y="60" width="321" height="550" as="geometry" />
        </mxCell>
        <mxCell id="R-JUSdy0ZhBVJnowikNM-1" value="每个Executor根据TP和GPU数量来创建Worker，每个worker对应一个GPU&lt;div&gt;Executor和Worker之间通过支持发布和订阅的MessageQueue (基于ZMQ)来发布任务和返回执行结果&lt;/div&gt;" style="rounded=0;whiteSpace=wrap;html=1;dashed=1;dashPattern=8 8;align=left;verticalAlign=top;" vertex="1" parent="1">
          <mxGeometry x="1230" y="232.5" width="210" height="85" as="geometry" />
        </mxCell>
      </root>
    </mxGraphModel>
  </diagram>
</mxfile>
